<mxfile host="app.diagrams.net" modified="2023-05-28T01:16:24.404Z" agent="Mozilla/5.0 (Macintosh; Intel Mac OS X 10_15_7) AppleWebKit/537.36 (KHTML, like Gecko) Chrome/112.0.0.0 Safari/537.36" etag="6NrOCwQ-L_U0f_7moSus" version="21.3.2" type="github">
  <diagram name="Page-1" id="mEnkXq7YSUXJUrK9Qk-e">
    <mxGraphModel dx="1798" dy="1734" grid="1" gridSize="10" guides="1" tooltips="1" connect="1" arrows="1" fold="1" page="1" pageScale="1" pageWidth="850" pageHeight="1100" math="0" shadow="0">
      <root>
        <mxCell id="0" />
        <mxCell id="1" parent="0" />
        <mxCell id="OeD2PwQ4nVp2_IlkDIqG-84" value="" style="rounded=0;whiteSpace=wrap;html=1;" parent="1" vertex="1">
          <mxGeometry x="797" y="241" width="173" height="249" as="geometry" />
        </mxCell>
        <mxCell id="OeD2PwQ4nVp2_IlkDIqG-99" value="" style="rounded=0;whiteSpace=wrap;html=1;" parent="1" vertex="1">
          <mxGeometry x="807.5" y="276" width="153" height="83" as="geometry" />
        </mxCell>
        <mxCell id="OeD2PwQ4nVp2_IlkDIqG-94" value="" style="rounded=0;whiteSpace=wrap;html=1;" parent="1" vertex="1">
          <mxGeometry x="807" y="406" width="153" height="73" as="geometry" />
        </mxCell>
        <mxCell id="OeD2PwQ4nVp2_IlkDIqG-35" value="" style="rounded=0;whiteSpace=wrap;html=1;" parent="1" vertex="1">
          <mxGeometry x="210" y="-43" width="190" height="532" as="geometry" />
        </mxCell>
        <mxCell id="OeD2PwQ4nVp2_IlkDIqG-16" value="" style="rounded=0;whiteSpace=wrap;html=1;" parent="1" vertex="1">
          <mxGeometry x="10" y="-120" width="190" height="610" as="geometry" />
        </mxCell>
        <mxCell id="OeD2PwQ4nVp2_IlkDIqG-18" value="" style="rounded=0;whiteSpace=wrap;html=1;" parent="1" vertex="1">
          <mxGeometry x="18.75" y="35" width="171.25" height="110" as="geometry" />
        </mxCell>
        <mxCell id="OeD2PwQ4nVp2_IlkDIqG-17" value="" style="rounded=0;whiteSpace=wrap;html=1;" parent="1" vertex="1">
          <mxGeometry x="220" y="-11" width="170" height="70" as="geometry" />
        </mxCell>
        <mxCell id="OeD2PwQ4nVp2_IlkDIqG-14" value="" style="rounded=0;whiteSpace=wrap;html=1;" parent="1" vertex="1">
          <mxGeometry x="20" y="-45" width="170" height="70" as="geometry" />
        </mxCell>
        <mxCell id="OeD2PwQ4nVp2_IlkDIqG-1" value="Odoo Platform" style="rounded=0;whiteSpace=wrap;html=1;" parent="1" vertex="1">
          <mxGeometry x="10" y="500" width="960" height="30" as="geometry" />
        </mxCell>
        <mxCell id="OeD2PwQ4nVp2_IlkDIqG-2" value="PostGres DB" style="shape=cylinder3;whiteSpace=wrap;html=1;boundedLbl=1;backgroundOutline=1;size=15;" parent="1" vertex="1">
          <mxGeometry x="220" y="391" width="60" height="70" as="geometry" />
        </mxCell>
        <mxCell id="OeD2PwQ4nVp2_IlkDIqG-4" value="MinIO DB" style="shape=cylinder3;whiteSpace=wrap;html=1;boundedLbl=1;backgroundOutline=1;size=15;" parent="1" vertex="1">
          <mxGeometry x="329" y="391" width="60" height="70" as="geometry" />
        </mxCell>
        <mxCell id="OeD2PwQ4nVp2_IlkDIqG-6" value="odoo-json-field" style="rounded=1;whiteSpace=wrap;html=1;" parent="1" vertex="1">
          <mxGeometry x="40" y="-85" width="130" height="30" as="geometry" />
        </mxCell>
        <mxCell id="OeD2PwQ4nVp2_IlkDIqG-8" value="g2p_auth_id_oidc&lt;span class=&quot;c-mrkdwntab&quot;&gt;&lt;span style=&quot;box-sizing: inherit; font-variant-ligatures: common-ligatures;&quot;&gt; &lt;/span&gt;&lt;/span&gt;&lt;span style=&quot;font-variant-ligatures: common-ligatures;&quot;&gt;&lt;/span&gt;" style="rounded=1;whiteSpace=wrap;html=1;" parent="1" vertex="1">
          <mxGeometry x="30" y="-15" width="150" height="30" as="geometry" />
        </mxCell>
        <mxCell id="OeD2PwQ4nVp2_IlkDIqG-11" value="g2p_odk_connector&amp;nbsp;" style="rounded=1;whiteSpace=wrap;html=1;" parent="1" vertex="1">
          <mxGeometry x="230" y="19" width="150" height="30" as="geometry" />
        </mxCell>
        <mxCell id="OeD2PwQ4nVp2_IlkDIqG-12" value="mts-connector" style="rounded=1;whiteSpace=wrap;html=1;direction=south;" parent="1" vertex="1">
          <mxGeometry x="28.75" y="65" width="151.25" height="30" as="geometry" />
        </mxCell>
        <mxCell id="OeD2PwQ4nVp2_IlkDIqG-13" value="g2p_mts&amp;nbsp;" style="rounded=1;whiteSpace=wrap;html=1;" parent="1" vertex="1">
          <mxGeometry x="28.75" y="103" width="151.25" height="30" as="geometry" />
        </mxCell>
        <mxCell id="OeD2PwQ4nVp2_IlkDIqG-19" value="&lt;b&gt;&lt;font style=&quot;font-size: 14px;&quot;&gt;openg2p-mts&lt;/font&gt;&lt;/b&gt;" style="text;html=1;strokeColor=none;fillColor=none;align=center;verticalAlign=middle;whiteSpace=wrap;rounded=0;" parent="1" vertex="1">
          <mxGeometry x="60" y="35" width="90" height="30" as="geometry" />
        </mxCell>
        <mxCell id="OeD2PwQ4nVp2_IlkDIqG-20" value="&lt;b&gt;&lt;font style=&quot;font-size: 14px;&quot;&gt;openg2p&lt;/font&gt;&lt;/b&gt;&lt;font style=&quot;font-size: 14px;&quot;&gt;&lt;b&gt;-&lt;/b&gt;&lt;/font&gt;&lt;font style=&quot;font-size: 14px;&quot;&gt;&lt;b&gt;auth&lt;/b&gt;&lt;/font&gt;" style="text;html=1;strokeColor=none;fillColor=none;align=center;verticalAlign=middle;whiteSpace=wrap;rounded=0;" parent="1" vertex="1">
          <mxGeometry x="52.5" y="-45" width="105" height="30" as="geometry" />
        </mxCell>
        <mxCell id="OeD2PwQ4nVp2_IlkDIqG-21" value="" style="rounded=0;whiteSpace=wrap;html=1;" parent="1" vertex="1">
          <mxGeometry x="20" y="280" width="170" height="200" as="geometry" />
        </mxCell>
        <mxCell id="OeD2PwQ4nVp2_IlkDIqG-22" value="g2p_notifications_base&amp;nbsp;" style="rounded=1;whiteSpace=wrap;html=1;direction=south;" parent="1" vertex="1">
          <mxGeometry x="31.5" y="316" width="148.5" height="30" as="geometry" />
        </mxCell>
        <mxCell id="OeD2PwQ4nVp2_IlkDIqG-23" value="&amp;nbsp;g2p_notifications_fast2sms&amp;nbsp;" style="rounded=1;whiteSpace=wrap;html=1;" parent="1" vertex="1">
          <mxGeometry x="34" y="357" width="146" height="30" as="geometry" />
        </mxCell>
        <mxCell id="OeD2PwQ4nVp2_IlkDIqG-24" value="&lt;b&gt;&lt;font style=&quot;font-size: 14px;&quot;&gt;openg2p-notifications&lt;/font&gt;&lt;/b&gt;" style="text;html=1;strokeColor=none;fillColor=none;align=center;verticalAlign=middle;whiteSpace=wrap;rounded=0;" parent="1" vertex="1">
          <mxGeometry x="24.380000000000003" y="280" width="160" height="30" as="geometry" />
        </mxCell>
        <mxCell id="OeD2PwQ4nVp2_IlkDIqG-25" value="g2p_notifications_rest_api&amp;nbsp;" style="rounded=1;whiteSpace=wrap;html=1;" parent="1" vertex="1">
          <mxGeometry x="32.75" y="398" width="147.25" height="30" as="geometry" />
        </mxCell>
        <mxCell id="OeD2PwQ4nVp2_IlkDIqG-26" value="g2p_notification_voucher" style="rounded=1;whiteSpace=wrap;html=1;" parent="1" vertex="1">
          <mxGeometry x="32.75" y="439" width="147.25" height="30" as="geometry" />
        </mxCell>
        <mxCell id="OeD2PwQ4nVp2_IlkDIqG-28" value="" style="rounded=0;whiteSpace=wrap;html=1;" parent="1" vertex="1">
          <mxGeometry x="20" y="156" width="170" height="110" as="geometry" />
        </mxCell>
        <mxCell id="OeD2PwQ4nVp2_IlkDIqG-29" value="g2p_encryption" style="rounded=1;whiteSpace=wrap;html=1;direction=south;" parent="1" vertex="1">
          <mxGeometry x="30" y="186" width="150" height="30" as="geometry" />
        </mxCell>
        <mxCell id="OeD2PwQ4nVp2_IlkDIqG-30" value="g2p_registry_encryption" style="rounded=1;whiteSpace=wrap;html=1;" parent="1" vertex="1">
          <mxGeometry x="30" y="224" width="150" height="30" as="geometry" />
        </mxCell>
        <mxCell id="OeD2PwQ4nVp2_IlkDIqG-31" value="&lt;p class=&quot;MsoNoSpacing&quot;&gt;&lt;b&gt;&lt;font style=&quot;font-size: 14px;&quot;&gt;openg2p-security&lt;/font&gt;&lt;/b&gt;&lt;/p&gt;" style="text;html=1;strokeColor=none;fillColor=none;align=center;verticalAlign=middle;whiteSpace=wrap;rounded=0;" parent="1" vertex="1">
          <mxGeometry x="45" y="156" width="120" height="30" as="geometry" />
        </mxCell>
        <mxCell id="OeD2PwQ4nVp2_IlkDIqG-32" value="&lt;b&gt;&lt;font style=&quot;font-size: 16px;&quot;&gt;Common Modules&lt;/font&gt;&lt;/b&gt;" style="text;html=1;strokeColor=none;fillColor=none;align=center;verticalAlign=middle;whiteSpace=wrap;rounded=0;" parent="1" vertex="1">
          <mxGeometry x="32.91" y="-116" width="144.18" height="30" as="geometry" />
        </mxCell>
        <mxCell id="OeD2PwQ4nVp2_IlkDIqG-34" style="edgeStyle=orthogonalEdgeStyle;rounded=0;orthogonalLoop=1;jettySize=auto;html=1;entryX=0.5;entryY=1;entryDx=0;entryDy=0;" parent="1" source="OeD2PwQ4nVp2_IlkDIqG-33" target="OeD2PwQ4nVp2_IlkDIqG-12" edge="1">
          <mxGeometry relative="1" as="geometry" />
        </mxCell>
        <mxCell id="OeD2PwQ4nVp2_IlkDIqG-33" value="&lt;b&gt;&lt;font style=&quot;font-size: 14px;&quot;&gt;MOSIP Token Seeder&lt;/font&gt;&lt;/b&gt;" style="ellipse;whiteSpace=wrap;html=1;" parent="1" vertex="1">
          <mxGeometry x="-160" y="40" width="120" height="80" as="geometry" />
        </mxCell>
        <mxCell id="OeD2PwQ4nVp2_IlkDIqG-36" value="openg2p-importers" style="text;html=1;strokeColor=none;fillColor=none;align=center;verticalAlign=middle;whiteSpace=wrap;rounded=0;fontStyle=1;fontSize=14;" parent="1" vertex="1">
          <mxGeometry x="240" y="-11" width="130" height="30" as="geometry" />
        </mxCell>
        <mxCell id="OeD2PwQ4nVp2_IlkDIqG-38" value="" style="rounded=0;whiteSpace=wrap;html=1;" parent="1" vertex="1">
          <mxGeometry x="220" y="69" width="170" height="312" as="geometry" />
        </mxCell>
        <mxCell id="OeD2PwQ4nVp2_IlkDIqG-39" value="g2p_registry_base" style="rounded=1;whiteSpace=wrap;html=1;" parent="1" vertex="1">
          <mxGeometry x="230" y="99" width="150" height="30" as="geometry" />
        </mxCell>
        <mxCell id="OeD2PwQ4nVp2_IlkDIqG-40" value="openg2p-registry" style="text;html=1;strokeColor=none;fillColor=none;align=center;verticalAlign=middle;whiteSpace=wrap;rounded=0;fontStyle=1;fontSize=14;" parent="1" vertex="1">
          <mxGeometry x="240" y="69" width="130" height="30" as="geometry" />
        </mxCell>
        <mxCell id="OeD2PwQ4nVp2_IlkDIqG-41" value="g2p_registry_individual" style="rounded=1;whiteSpace=wrap;html=1;" parent="1" vertex="1">
          <mxGeometry x="230" y="140" width="150" height="30" as="geometry" />
        </mxCell>
        <mxCell id="OeD2PwQ4nVp2_IlkDIqG-42" value="g2p_registry_group&amp;nbsp;" style="rounded=1;whiteSpace=wrap;html=1;" parent="1" vertex="1">
          <mxGeometry x="230" y="181" width="150" height="30" as="geometry" />
        </mxCell>
        <mxCell id="OeD2PwQ4nVp2_IlkDIqG-43" value="g2p_registry_membership" style="rounded=1;whiteSpace=wrap;html=1;" parent="1" vertex="1">
          <mxGeometry x="230" y="221" width="150" height="30" as="geometry" />
        </mxCell>
        <mxCell id="OeD2PwQ4nVp2_IlkDIqG-44" value="g2p_documents" style="rounded=1;whiteSpace=wrap;html=1;" parent="1" vertex="1">
          <mxGeometry x="230" y="261" width="150" height="30" as="geometry" />
        </mxCell>
        <mxCell id="OeD2PwQ4nVp2_IlkDIqG-45" value="g2p_bank" style="rounded=1;whiteSpace=wrap;html=1;" parent="1" vertex="1">
          <mxGeometry x="229" y="301" width="150" height="30" as="geometry" />
        </mxCell>
        <mxCell id="OeD2PwQ4nVp2_IlkDIqG-46" value="g2p_registry_rest_api" style="rounded=1;whiteSpace=wrap;html=1;" parent="1" vertex="1">
          <mxGeometry x="230" y="341" width="150" height="30" as="geometry" />
        </mxCell>
        <mxCell id="OeD2PwQ4nVp2_IlkDIqG-47" value="&lt;b&gt;&lt;font style=&quot;font-size: 16px;&quot;&gt;Registration Modules&lt;/font&gt;&lt;/b&gt;" style="text;html=1;strokeColor=none;fillColor=none;align=center;verticalAlign=middle;whiteSpace=wrap;rounded=0;" parent="1" vertex="1">
          <mxGeometry x="219" y="-43" width="170" height="30" as="geometry" />
        </mxCell>
        <mxCell id="OeD2PwQ4nVp2_IlkDIqG-76" style="edgeStyle=orthogonalEdgeStyle;rounded=0;orthogonalLoop=1;jettySize=auto;html=1;entryX=1;entryY=0.5;entryDx=0;entryDy=0;" parent="1" source="OeD2PwQ4nVp2_IlkDIqG-48" target="OeD2PwQ4nVp2_IlkDIqG-11" edge="1">
          <mxGeometry relative="1" as="geometry" />
        </mxCell>
        <mxCell id="OeD2PwQ4nVp2_IlkDIqG-48" value="&lt;b&gt;&lt;font style=&quot;font-size: 14px;&quot;&gt;ODK Central&lt;/font&gt;&lt;/b&gt;" style="ellipse;whiteSpace=wrap;html=1;" parent="1" vertex="1">
          <mxGeometry x="500" y="-14" width="120" height="80" as="geometry" />
        </mxCell>
        <mxCell id="OeD2PwQ4nVp2_IlkDIqG-50" value="" style="rounded=0;whiteSpace=wrap;html=1;" parent="1" vertex="1">
          <mxGeometry x="410" y="78" width="375" height="412" as="geometry" />
        </mxCell>
        <mxCell id="OeD2PwQ4nVp2_IlkDIqG-56" value="" style="rounded=0;whiteSpace=wrap;html=1;" parent="1" vertex="1">
          <mxGeometry x="420" y="111" width="350" height="372" as="geometry" />
        </mxCell>
        <mxCell id="OeD2PwQ4nVp2_IlkDIqG-57" value="g2p_program_registrant_info" style="rounded=1;whiteSpace=wrap;html=1;" parent="1" vertex="1">
          <mxGeometry x="429" y="146" width="160" height="32" as="geometry" />
        </mxCell>
        <mxCell id="OeD2PwQ4nVp2_IlkDIqG-58" value="openg2p-program" style="text;html=1;strokeColor=none;fillColor=none;align=center;verticalAlign=middle;whiteSpace=wrap;rounded=0;fontStyle=1;fontSize=14;" parent="1" vertex="1">
          <mxGeometry x="530" y="114" width="130" height="30" as="geometry" />
        </mxCell>
        <mxCell id="OeD2PwQ4nVp2_IlkDIqG-59" value="g2p_program_registrant_info&lt;br&gt;_rest_api&amp;nbsp;" style="rounded=1;whiteSpace=wrap;html=1;" parent="1" vertex="1">
          <mxGeometry x="429" y="189" width="160" height="42" as="geometry" />
        </mxCell>
        <mxCell id="OeD2PwQ4nVp2_IlkDIqG-60" value="g2p_programs" style="rounded=1;whiteSpace=wrap;html=1;" parent="1" vertex="1">
          <mxGeometry x="430" y="243" width="160" height="30" as="geometry" />
        </mxCell>
        <mxCell id="OeD2PwQ4nVp2_IlkDIqG-61" value="g2p_programs_rest_api&amp;nbsp;" style="rounded=1;whiteSpace=wrap;html=1;" parent="1" vertex="1">
          <mxGeometry x="430" y="283" width="160" height="30" as="geometry" />
        </mxCell>
        <mxCell id="OeD2PwQ4nVp2_IlkDIqG-62" value="g2p_program_cycleless" style="rounded=1;whiteSpace=wrap;html=1;" parent="1" vertex="1">
          <mxGeometry x="430" y="323" width="160" height="30" as="geometry" />
        </mxCell>
        <mxCell id="OeD2PwQ4nVp2_IlkDIqG-63" value="g2p_program_approval" style="rounded=1;whiteSpace=wrap;html=1;" parent="1" vertex="1">
          <mxGeometry x="429" y="363" width="161" height="30" as="geometry" />
        </mxCell>
        <mxCell id="OeD2PwQ4nVp2_IlkDIqG-64" value="g2p_program_assessment" style="rounded=1;whiteSpace=wrap;html=1;" parent="1" vertex="1">
          <mxGeometry x="430" y="403" width="160" height="30" as="geometry" />
        </mxCell>
        <mxCell id="OeD2PwQ4nVp2_IlkDIqG-65" value="&lt;b&gt;&lt;font style=&quot;font-size: 16px;&quot;&gt;Program Modules&lt;/font&gt;&lt;/b&gt;" style="text;html=1;strokeColor=none;fillColor=none;align=center;verticalAlign=middle;whiteSpace=wrap;rounded=0;" parent="1" vertex="1">
          <mxGeometry x="505" y="76" width="170" height="30" as="geometry" />
        </mxCell>
        <mxCell id="OeD2PwQ4nVp2_IlkDIqG-66" value="g2p_program_documents" style="rounded=1;whiteSpace=wrap;html=1;" parent="1" vertex="1">
          <mxGeometry x="430" y="442" width="160" height="30" as="geometry" />
        </mxCell>
        <mxCell id="OeD2PwQ4nVp2_IlkDIqG-69" value="g2p_payment_interop_layer" style="rounded=1;whiteSpace=wrap;html=1;" parent="1" vertex="1">
          <mxGeometry x="600" y="442" width="160" height="30" as="geometry" />
        </mxCell>
        <mxCell id="OeD2PwQ4nVp2_IlkDIqG-70" value="g2p_payment_phee" style="rounded=1;whiteSpace=wrap;html=1;" parent="1" vertex="1">
          <mxGeometry x="600" y="402" width="160" height="30" as="geometry" />
        </mxCell>
        <mxCell id="OeD2PwQ4nVp2_IlkDIqG-71" value="g2p_payment_files" style="rounded=1;whiteSpace=wrap;html=1;" parent="1" vertex="1">
          <mxGeometry x="600" y="361" width="160" height="30" as="geometry" />
        </mxCell>
        <mxCell id="OeD2PwQ4nVp2_IlkDIqG-72" value="g2p_payment_cash" style="rounded=1;whiteSpace=wrap;html=1;" parent="1" vertex="1">
          <mxGeometry x="600" y="323" width="160" height="30" as="geometry" />
        </mxCell>
        <mxCell id="OeD2PwQ4nVp2_IlkDIqG-73" value="g2p_entitlement_voucher" style="rounded=1;whiteSpace=wrap;html=1;" parent="1" vertex="1">
          <mxGeometry x="600" y="284" width="160" height="30" as="geometry" />
        </mxCell>
        <mxCell id="OeD2PwQ4nVp2_IlkDIqG-74" value="g2p_program_reimbursement" style="rounded=1;whiteSpace=wrap;html=1;" parent="1" vertex="1">
          <mxGeometry x="600" y="243" width="160" height="30" as="geometry" />
        </mxCell>
        <mxCell id="OeD2PwQ4nVp2_IlkDIqG-75" value="g2p_program_autoenrol" style="rounded=1;whiteSpace=wrap;html=1;" parent="1" vertex="1">
          <mxGeometry x="600" y="203" width="160" height="30" as="geometry" />
        </mxCell>
        <mxCell id="OeD2PwQ4nVp2_IlkDIqG-77" value="Information&amp;nbsp;" style="text;html=1;strokeColor=none;fillColor=none;align=center;verticalAlign=middle;whiteSpace=wrap;rounded=0;" parent="1" vertex="1">
          <mxGeometry x="220" y="461" width="60" height="30" as="geometry" />
        </mxCell>
        <mxCell id="OeD2PwQ4nVp2_IlkDIqG-78" value="Object DB" style="text;html=1;strokeColor=none;fillColor=none;align=center;verticalAlign=middle;whiteSpace=wrap;rounded=0;" parent="1" vertex="1">
          <mxGeometry x="330" y="461" width="60" height="30" as="geometry" />
        </mxCell>
        <mxCell id="OeD2PwQ4nVp2_IlkDIqG-85" value="g2p_self_service_portal" style="rounded=1;whiteSpace=wrap;html=1;" parent="1" vertex="1">
          <mxGeometry x="819.5" y="319" width="128.5" height="30" as="geometry" />
        </mxCell>
        <mxCell id="OeD2PwQ4nVp2_IlkDIqG-86" value="openg2p-self-service&lt;br&gt;-portal" style="text;html=1;strokeColor=none;fillColor=none;align=center;verticalAlign=middle;whiteSpace=wrap;rounded=0;fontStyle=1;fontSize=14;" parent="1" vertex="1">
          <mxGeometry x="810" y="282" width="150" height="30" as="geometry" />
        </mxCell>
        <mxCell id="OeD2PwQ4nVp2_IlkDIqG-87" value="&amp;nbsp;g2p_service_provider_portal&amp;nbsp;" style="rounded=1;whiteSpace=wrap;html=1;" parent="1" vertex="1">
          <mxGeometry x="807" y="367" width="153" height="30" as="geometry" />
        </mxCell>
        <mxCell id="OeD2PwQ4nVp2_IlkDIqG-92" value="g2p_theme&amp;nbsp;" style="rounded=1;whiteSpace=wrap;html=1;" parent="1" vertex="1">
          <mxGeometry x="817" y="438" width="133" height="30" as="geometry" />
        </mxCell>
        <mxCell id="OeD2PwQ4nVp2_IlkDIqG-98" value="&lt;b&gt;&lt;font style=&quot;font-size: 14px;&quot;&gt;openg2p-theme&lt;/font&gt;&lt;/b&gt;" style="text;html=1;strokeColor=none;fillColor=none;align=center;verticalAlign=middle;whiteSpace=wrap;rounded=0;" parent="1" vertex="1">
          <mxGeometry x="830" y="405" width="110" height="30" as="geometry" />
        </mxCell>
        <mxCell id="OeD2PwQ4nVp2_IlkDIqG-100" value="&lt;b&gt;&lt;font style=&quot;font-size: 16px;&quot;&gt;Web Applications&lt;/font&gt;&lt;/b&gt;" style="text;html=1;strokeColor=none;fillColor=none;align=center;verticalAlign=middle;whiteSpace=wrap;rounded=0;" parent="1" vertex="1">
          <mxGeometry x="798.5" y="239" width="170" height="30" as="geometry" />
        </mxCell>
      </root>
    </mxGraphModel>
  </diagram>
</mxfile>
